<svg xmlns="http://www.w3.org/2000/svg" viewBox="0 0 120 120">
  <path fill="#1B1B1F" d="M73.3 120c-2.3 0-4.1-1.8-4.1-4.1v-2.1c0-2.3 1.8-4.1 4.1-4.1h.1l2.8-77.5c-1.2-.9-2.1-2.3-2.4-3.8H27v14.8h.7c1.8 0 3.3 1.5 3.3 3.3V49c0 1.8-1.5 3.3-3.3 3.3H27v.3c1.8.6 3 2.3 3 4.3s-.6 2.6-1.6 3.4l8.8 6.8h3c.8 0 1.5.7 1.5 1.5V75h3.6c.8 0 1.5.7 1.5 1.5v21.2c0 .8-.7 1.5-1.5 1.5H5.5c-.8 0-1.5-.7-1.5-1.5V76.5c0-.8.7-1.5 1.5-1.5h3.6v-6.4c0-.8.7-1.5 1.5-1.5h3.2l8.8-6.8c-1-.9-1.6-2.1-1.6-3.4s.7-1.5 1.5-1.5 1.5.7 1.5 1.5.7 1.5 1.5 1.5 1.5-.7 1.5-1.5-.7-1.5-1.5-1.5-1.5-.7-1.5-1.5v-1.5h-.6c-1.8 0-3.3-1.5-3.3-3.3v-2.5c0-1.8 1.5-3.3 3.3-3.3h.6v-15c-2-.7-3.4-2.5-3.4-4.6s2-4.7 4.6-4.9L80.9.8c.8-.5 1.7-.8 2.6-.8h.2c2.4 0 4.8 2.2 4.8 3.6v10.2c2.4.6 4.3 2.5 4.8 4.8h6.7c.9-2 2.8-3.3 5-3.3h5.4c3 0 5.4 2.5 5.4 5.5v5.4c0 3-2.5 5.5-5.5 5.5h-5.4c-2.2 0-4.2-1.3-5-3.3h-6.7c-.3 1.5-1.2 2.8-2.4 3.8l2.9 77.5h.1c2.3 0 4.1 1.9 4.1 4.1v2.1c0 2.3-1.9 4.1-4.1 4.1H73.1Zm0-7.3c-.6 0-1.1.5-1.1 1.1v2.1c0 .6.5 1.1 1.1 1.1H94c.6 0 1.1-.5 1.1-1.1v-2.1c0-.6-.5-1.1-1.1-1.1H73.3Zm17.5-3-.4-9.8-14 9.7c0 .1 14.4.1 14.4.1Zm-14.2-3.9 12.3-8.6-11.8-6-.5 14.6Zm-32.7-9.6V78H7v18.2h36.9Zm46.3-1.7-.5-12.2-10.9 6.4 11.4 5.8Zm-12.9-8.4L88 79.9 77.7 75l-.4 11.1Zm12.3-8.8-.4-10.2-9.6 5.4 10 4.8ZM38.8 75v-4.9H12.1V75h26.7Zm39.1-5 9.7-5.5-9.3-5.3-.4 10.8Zm-45.6-2.9-6.8-5.2-6.8 5.2h13.6ZM89 61.8l-.4-10-8.7 4.8 9.1 5.2ZM78.4 54l8.7-4.8-8.3-5.4-.4 10.2Zm-55-7.7c-.1 0-.3.1-.3.3v2.5c0 .1.1.3.3.3h4.3c.1 0 .3-.1.3-.3v-2.5c0-.1-.1-.3-.3-.3h-4.3Zm65 .1L88 36.3 80.2 41l8.2 5.4ZM79 38.2l7.6-4.6h-7.5l-.2 4.6Zm1.1-21.5c-1.9 0-3.5 1.6-3.5 3.5v6.9c0 1.9 1.6 3.5 3.5 3.5H87c1.9 0 3.5-1.6 3.5-3.5v-6.9c0-1.9-1.6-3.5-3.5-3.5h-6.9Zm25 1.7c-1.4 0-2.5 1.1-2.5 2.5v5.4c0 1.4 1.1 2.5 2.5 2.5h5.4c1.4 0 2.5-1.1 2.5-2.5v-5.4c0-1.4-1.1-2.5-2.5-2.5h-5.4Zm-81.4 5.2c0 1 .9 1.8 1.9 1.8h48v-3.7H25.5c-1 0-1.9.8-1.9 1.9Zm75.9 1.8v-3.7h-6.1v3.7h6.1Zm-25.9-6.8c.6-2.4 2.5-4.3 4.9-4.8V4.7L35.2 18.6h38.5Zm11.7-5V4c-.3-.3-1-.9-1.7-.9l-1.5.5c-.2.1-.4.3-.5.4v9.6h3.7Z"/>
</svg>
