<svg xmlns="http://www.w3.org/2000/svg" viewBox="0 0 120 120">
  <path fill="#1B1B1F" d="M118.9 12.1c-3-1-6-1.7-9.1-2.2V6.4c0-.7-.3-1.3-.9-1.5-8.3-3-17.3-4-26-2.8C76 3 66.6 5.5 60.1 12.5c-6.6-7-15.9-9.6-22.8-10.4-8.8-1.2-17.7-.2-26 2.8-.6.2-1 .8-1 1.5v3.5c-3 .5-6.1 1.2-9 2.2-.9.2-1.3.9-1.3 1.6l1.4 68.7c0 .9.8 1.6 1.6 1.6h.4c13.1-4 34.2-4.1 48 3.3V89c0 3.5 2.9 6.4 6.4 6.4h3.5c3.5 0 6.4-2.9 6.4-6.4v-1.3c13.8-7.8 35.2-7.8 48.7-3.7.8.3 1.7-.2 2-1.1v-.4l1.4-68.7c0-.7-.4-1.3-1.1-1.5ZM83.2 5.3c7.9-1 15.9-.3 23.4 2.2v3.2l-.1.2v.7l-1.1 60c-7.6-2.1-15.5-2.7-23.3-1.6-6.2.9-14.4 3.1-20.6 8.8V15.6c4.6-5.4 12.3-9.1 21.6-10.3Zm-46.4 0c9.3 1.2 17 4.8 21.6 10.3v63.3C52.2 73.2 44 71 37.8 70.1c-7.8-1.1-15.7-.6-23.3 1.6l-1.1-60V7.6c7.5-2.5 15.5-3.3 23.4-2.2Zm78.6 74.9c-14.4-3.8-36-3.3-49.9 5s0 .1 0 .1v.1c0 .1 0 0 0 0v2.7c0 1.8-1.4 3.2-3.2 3.2h-3.5c-1.8 0-3.2-1.4-3.2-3.2V85c-8.6-4.9-18.8-6.4-25.9-6.8-7.9-.5-15.8.3-23.5 2.2l-3-65.6c2.3-.7 4.6-1.2 7-1.7l1.1 60.7c0 .9.7 1.6 1.6 1.6h.5c7.7-2.5 15.9-3.3 23.9-2.1 6.6.9 15.7 3.5 21.4 10.6v.1h.9v-.1c5.8-7.1 14.8-9.7 21.4-10.6 8-1.2 16.2-.4 23.9 2.1.8.3 1.7-.1 2-1v-.5l1.1-60.7c2.4.4 4.7 1 7 1.7l-1.4 65.4Zm-5.5 18.1H17.1c-.3 0-.6 0-.8.2l-13.6 8.4c-.8.5-1 1.5-.5 2.2.1.2.3.4.5.5l13.6 8.4c.3.2.5.2.8.2h92.7c4.6 0 8.3-4.1 8.3-9.2v-1.7c0-5.1-3.7-9.2-8.3-9.2Zm-92.7 16.6-10.7-6.6 10.7-6.6c.4 2.2.6 4.4.6 6.6 0 2.2-.2 4.4-.6 6.6Zm81.6.3H20.4c.4-2.3.6-4.5.6-6.8s-.2-4.6-.6-6.8h78.4v13.7Zm16.1-6c0 3.3-2.3 6-5.1 6H102v-13.7h7.8c2.8 0 5.1 2.7 5.1 6v1.7Z"/>
</svg>
