<svg xmlns="http://www.w3.org/2000/svg" viewBox="0 0 120 120">
  <path fill="#fff" d="m119.7 95.1-24.8-76c-.5-1.5-1.6-2.8-3-3.5-1.4-.7-3-.8-4.6-.4l-13.5 4.4c-.8.3-1.5.6-2.1 1.2v-2.9c0-3.3-2.7-6-6-6H51.6c-1.7 0-3.2.7-4.3 1.9-1.1-1.1-2.6-1.9-4.3-1.9H28.9c-1.7 0-3.2.7-4.3 1.9-1.1-1.1-2.6-1.9-4.3-1.9H6c-3.3 0-6 2.7-6 6v84.3c0 3.3 2.7 6 6 6h14.1c1.7 0 3.2-.7 4.3-1.9 1.1 1.1 2.6 1.9 4.3 1.9h14.1c1.7 0 3.2-.7 4.3-1.9 1.1 1.1 2.6 1.9 4.3 1.9h14.1c3.3 0 6-2.7 6-6V32.7l23 70.6c.5 1.5 1.6 2.8 3 3.5.9.4 1.8.7 2.7.7s1.3 0 1.9-.3l13.5-4.4c1.5-.5 2.7-1.6 3.5-3 .7-1.4.9-3.1.4-4.6Zm-96.9 7.1c0 1.5-1.2 2.7-2.7 2.7H6c-1.5 0-2.7-1.2-2.7-2.7V17.8c0-1.5 1.2-2.7 2.7-2.7h14.1c1.5 0 2.7 1.2 2.7 2.7v84.3Zm22.9 0c0 1.5-1.2 2.7-2.7 2.7H28.9c-1.5 0-2.7-1.2-2.7-2.7V17.8c0-1.5 1.2-2.7 2.7-2.7H43c1.5 0 2.7 1.2 2.7 2.7v84.3Zm22.8 0c0 1.5-1.2 2.7-2.7 2.7H51.7c-1.5 0-2.7-1.2-2.7-2.7V17.8c0-1.5 1.2-2.7 2.7-2.7h14.1c1.5 0 2.7 1.2 2.7 2.7v84.3Zm47.9-4c-.3.6-.9 1.1-1.6 1.3l-13.5 4.4c-.7.2-1.4.2-2-.2-.6-.3-1.1-.9-1.3-1.6l-24.8-76c-.2-.7-.2-1.4.2-2 .3-.6.9-1.1 1.6-1.3l13.5-4.4c.7-.2 1.4-.2 2 .2.6.3 1.1.9 1.3 1.6l24.8 76c.2.7.2 1.4-.2 2ZM13.1 53c-3.9 0-7 3.2-7 7s3.2 7 7 7 7-3.2 7-7-3.2-7-7-7Zm0 10.7c-2 0-3.7-1.7-3.7-3.7s1.7-3.7 3.7-3.7 3.7 1.7 3.7 3.7-1.7 3.7-3.7 3.7ZM7.2 22.1c0-.9.7-1.7 1.7-1.7h8.5c.9 0 1.7.7 1.7 1.7s-.7 1.7-1.7 1.7H8.9c-.9 0-1.7-.7-1.7-1.7Zm0 6.5c0-.9.7-1.7 1.7-1.7h8.5c.9 0 1.7.7 1.7 1.7s-.7 1.7-1.7 1.7H8.9c-.9 0-1.7-.7-1.7-1.7ZM19 95.7c0 .9-.7 1.7-1.7 1.7H8.8c-.9 0-1.7-.7-1.7-1.7S7.8 94 8.8 94h8.5c.9 0 1.7.7 1.7 1.7ZM35.9 53c-3.9 0-7 3.2-7 7s3.2 7 7 7 7-3.2 7-7-3.2-7-7-7Zm0 10.7c-2 0-3.7-1.7-3.7-3.7s1.7-3.7 3.7-3.7 3.7 1.7 3.7 3.7-1.7 3.7-3.7 3.7ZM30 22.1c0-.9.7-1.7 1.7-1.7h8.5c.9 0 1.7.7 1.7 1.7s-.7 1.7-1.7 1.7h-8.5c-.9 0-1.7-.7-1.7-1.7Zm0 6.5c0-.9.7-1.7 1.7-1.7h8.5c.9 0 1.7.7 1.7 1.7s-.7 1.7-1.7 1.7h-8.5c-.9 0-1.7-.7-1.7-1.7Zm11.8 67.1c0 .9-.7 1.7-1.7 1.7h-8.5c-.9 0-1.7-.7-1.7-1.7s.7-1.7 1.7-1.7h8.5c.9 0 1.7.7 1.7 1.7ZM58.7 53c-3.9 0-7 3.2-7 7s3.2 7 7 7 7-3.2 7-7-3.2-7-7-7Zm0 10.7c-2 0-3.7-1.7-3.7-3.7s1.7-3.7 3.7-3.7 3.7 1.7 3.7 3.7-1.7 3.7-3.7 3.7Zm-5.9-41.6c0-.9.7-1.7 1.7-1.7H63c.9 0 1.7.7 1.7 1.7s-.7 1.7-1.7 1.7h-8.5c-.9 0-1.7-.7-1.7-1.7Zm0 6.5c0-.9.7-1.7 1.7-1.7H63c.9 0 1.7.7 1.7 1.7s-.7 1.7-1.7 1.7h-8.5c-.9 0-1.7-.7-1.7-1.7Zm11.8 67.1c0 .9-.7 1.7-1.7 1.7h-8.5c-.9 0-1.7-.7-1.7-1.7s.7-1.7 1.7-1.7h8.5c.9 0 1.7.7 1.7 1.7Zm37-36.7c-.9-2.9-3.6-4.9-6.7-4.9s-1.5.1-2.2.3c-3.7 1.2-5.7 5.2-4.5 8.9.9 2.9 3.6 4.9 6.7 4.9s1.5-.1 2.2-.3c3.7-1.2 5.7-5.2 4.5-8.9ZM96 64.7c-.4.1-.8.2-1.2.2-1.6 0-3-1-3.5-2.6-.6-1.9.4-4 2.4-4.7.4-.1.8-.2 1.2-.2 1.6 0 3 1 3.5 2.6.6 1.9-.4 4-2.4 4.7ZM79.9 28.9h-.5c-.7 0-1.4-.4-1.6-1.1-.3-.9.2-1.8 1.1-2.1l8.1-2.6c.9-.3 1.8.2 2.1 1.1.3.9-.2 1.8-1.1 2.1l-8.1 2.6Zm10 3.5L81.8 35h-.5c-.7 0-1.4-.4-1.6-1.1-.3-.9.2-1.8 1.1-2.1l8.1-2.6c.9-.3 1.8.2 2.1 1.1.3.9-.2 1.8-1.1 2.1Zm21 58.8c.3.9-.2 1.8-1.1 2.1l-8.1 2.6h-.5c-.7 0-1.4-.4-1.6-1.1-.3-.9.2-1.8 1.1-2.1l8.1-2.6c.9-.3 1.8.2 2.1 1.1Z"/>
</svg>
