<svg xmlns="http://www.w3.org/2000/svg" viewBox="0 0 120 120">
  <path fill="#1B1B1F" d="M120 3c-.3-1.9-2.1-3.2-4-2.9-10.4 1.6-20.5 4.7-30.1 9.1h-.1c-.2.1-.4.2-.5.3-9.1 4.2-17.5 9.9-24.7 16.9-6.4 6.4-12.2 13.4-17.4 20.8-3.5-.9-15.6-2.5-28.8 11.7C4.4 69.4 1.1 77 0 81.6c-.2.9.2 1.9 1.1 2.3.3.1.6.2.9.2.6 0 1.2-.3 1.6-.8 4.5-5.8 16.2-18.7 29.5-17.8-.2.5-.4 1.1-.6 1.6-.3 1-.3 2.1.1 3.1-2.8 2-5.4 4.2-7.9 6.7-8.7 8.7-11 21.3-11.5 26.3v.3c0 1.7 1.4 3.1 3.1 3.1h.3c5-.6 17.6-2.9 26.3-11.6 2.4-2.4 4.7-5.1 6.7-7.9.5.2 1.1.3 1.7.3.5 0 .9 0 1.4-.2.5-.2 1-.4 1.6-.5.9 13.3-12.1 25-17.9 29.5-.8.6-1 1.7-.5 2.6.3.7 1.1 1.1 1.8 1.1h.5c4.6-1.1 12.3-4.4 22.7-14.2C75 92.5 73.5 80.4 72.6 76.9c7.5-5.1 14.4-11 20.8-17.4 7-7.2 12.7-15.5 16.9-24.6 0-.2.2-.4.2-.5v-.1c4.4-9.6 7.4-19.7 9.1-30.1V3.1ZM3.1 80.2c1.3-4 4.7-10.7 13-19.6C25 51 33.3 49.2 38.3 49.2c1.1 0 2.2 0 3.3.3-.2.3-.3.6-.5.8-.4.7-.9 1.4-1.3 2.1-.5.8-.9 1.5-1.3 2.3-.2.4-.5.8-.7 1.2-1.3 2.3-2.4 4.7-3.5 7.2C20.7 61.7 8.8 73.5 3.2 80.2ZM51.9 63c1.4-1.4 3.6-1.4 5 0 .9.9 1.2 2.1 1 3.2-.1.7-.4 1.3-1 1.9-.6.6-5.3 4.4-13.8 11.1-2.4 1.9-4.9 3.9-7.3 5.7L33 87.1l.8 1-.9-1c2.4-3.3 5.3-6.9 8-10.4.5-.7 1-1.3 1.5-1.9 5.3-6.7 8.9-11.2 9.5-11.8ZM41.3 93.3c-8.2 8.2-20.1 10.3-24.8 10.9h-.1c-.4 0-.6-.3-.6-.7.5-4.8 2.7-16.7 10.8-24.8 2.3-2.4 4.9-4.5 7.6-6.4l3.9 3.9c-2.5 3.2-5.1 6.5-7.3 9.3 0 .1-.2.2-.2.4 0 .1-.1.2-.1.3v1.3c0 .1 0 .2.1.4v.1c0 .1 0 .2.2.3v.1l.1.1.2.2.2.2.2.2s.1 0 .2.1c0 0 .2 0 .3.1h1.5c.1 0 .2 0 .3-.1h.2s.2-.1.3-.2h.1l2.8-2.2c1.5-1.2 3.2-2.5 4.8-3.7.4-.3.7-.6 1.1-.8.2-.2.5-.4.7-.5l.2.2 3.7 3.7c-1.9 2.7-4.1 5.2-6.5 7.6Zm18.1 10.6c-8.9 8.3-15.6 11.7-19.6 13 6.7-5.6 18.5-17.5 17.1-31.1 2.5-1.1 4.9-2.2 7.2-3.5.4-.2.7-.4 1.1-.6.8-.5 1.7-.9 2.5-1.4.7-.4 1.3-.8 2-1.3l.9-.6c.7 3.9 1 14.1-11.2 25.5Zm32.4-46.1c-6.5 6.5-13.6 12.4-21.2 17.6-4.9 3.4-10.1 6.2-15.6 8.5-1.1.4-2 .8-3 1.1-.7.2-1.5 0-2-.5l-4.2-4.2c1-.8 1.9-1.5 2.8-2.2l.2-.2c.4-.3.7-.6 1-.8.3-.2.6-.5.9-.7 0 0 .2-.1.3-.2 4.6-3.7 6.5-5.2 7.2-5.9l.2-.2h.1c1.4-1.5 2-3.5 1.6-5.4-.2-1.1-.8-2.2-1.6-3.1-.6-.6-1.3-1.1-2-1.4-2.2-.9-4.8-.5-6.6 1.3l-.3.3v.1c0 .1-.2.2-.3.4v.1c-.1.1-.3.3-.4.5v.1c-.2.2-.3.4-.5.6-2.2 2.6-5.6 7.1-8.1 10.1-.2.2-.3.4-.5.6l-3.4-3.4-.7-.7c-.6-.6-.8-1.4-.5-2.2.3-.9.7-1.9 1.1-3 2.3-5.5 5.1-10.7 8.4-15.6 5.2-7.6 11.1-14.7 17.6-21.2 6.8-6.6 14.7-12.1 23.3-16.1l22.5 22.5c-4 8.6-9.4 16.5-16.1 23.3Zm25.7-54.1c-1.6 9.8-4.4 19.4-8.4 28.5L87.9 11c9.1-4 18.6-6.9 28.5-8.4.3 0 .7 0 .9.3.2.2.3.6.3.9ZM72.1 35.8c0 6.6 5.3 12.1 11.9 12.1 6.5 0 11.8-5.4 11.9-11.9 0-6.6-5.3-12.1-11.9-12.1-6.5 0-11.8 5.4-11.9 11.9Zm21.4.2c0 5.3-4.3 9.5-9.5 9.5-5.3 0-9.5-4.3-9.5-9.5 0-5.3 4.3-9.5 9.5-9.5 2.5 0 4.9 1 6.7 2.8 1.8 1.8 2.8 4.2 2.8 6.7Z"/>
</svg>
